<svg width="1200" height="630" viewBox="0 0 1200 630" xmlns="http://www.w3.org/2000/svg">
  <!-- Background gradient -->
  <defs>
    <linearGradient id="grad" x1="0%" y1="0%" x2="100%" y2="100%">
      <stop offset="0%" style="stop-color:#1DB954;stop-opacity:1" />
      <stop offset="100%" style="stop-color:#1aa34a;stop-opacity:1" />
    </linearGradient>
  </defs>

  <!-- Background -->
  <rect width="1200" height="630" fill="url(#grad)"/>

  <!-- Music note icon -->
  <g transform="translate(600, 200)">
    <path d="M-40 40 L-40 -80 L40 -100 L40 20 C40 42 24 60 0 60 C-24 60 -40 42 -40 20 C-40 -2 -24 -20 0 -20 C8 -20 16 -18 24 -14 L24 -70 L-16 -60 L-16 20 C-16 42 -32 60 -56 60 C-80 60 -96 42 -96 20 C-96 -2 -80 -20 -56 -20 C-48 -20 -40 -18 -32 -14"
          fill="white"
          stroke="white"
          stroke-width="8"/>
  </g>

  <!-- Title -->
  <text x="600" y="380"
        font-family="'Google Sans Flex', system-ui, sans-serif"
        font-size="80"
        font-weight="700"
        fill="white"
        text-anchor="middle">
    Year of Music
  </text>

  <!-- Subtitle -->
  <text x="600" y="450"
        font-family="'Google Sans Flex', system-ui, sans-serif"
        font-size="36"
        font-weight="500"
        fill="rgba(255,255,255,0.9)"
        text-anchor="middle">
    Daily music sharing reminders for your group
  </text>

  <!-- Domain -->
  <text x="600" y="540"
        font-family="'Google Sans Flex', system-ui, sans-serif"
        font-size="28"
        font-weight="400"
        fill="rgba(255,255,255,0.8)"
        text-anchor="middle">
    yearofmusic.superfun.games
  </text>
</svg>
